HIERARCHY
ROOT ui
{
	 OFFSET 0 0 0
	 CHANNELS 3 XPosition YPosition Z Position
	 EndSite
	 {
	 OFFSET 0 -1 0
	 }
}
ROOT li
{
	 OFFSET 0 0 0
	 CHANNELS 3 XPosition YPosition Z Position
	 EndSite
	 {
	 OFFSET 0 -1 0
	 }
}
ROOT ul
{
	 OFFSET 0 0 0
	 CHANNELS 3 XPosition YPosition Z Position
	 EndSite
	 {
	 OFFSET 0 -1 0
	 }
}
ROOT ll
{
	 OFFSET 0 0 0
	 CHANNELS 3 XPosition YPosition Z Position
	 EndSite
	 {
	 OFFSET 0 -1 0
	 }
}
ROOT tt
{
	 OFFSET 0 0 0
	 CHANNELS 3 XPosition YPosition Z Position
	 EndSite
	 {
	 OFFSET 0 -1 0
	 }
}
ROOT tb
{
	 OFFSET 0 0 0
	 CHANNELS 3 XPosition YPosition Z Position
	 EndSite
	 {
	 OFFSET 0 -1 0
	 }
}
ROOT td
{
	 OFFSET 0 0 0
	 CHANNELS 3 XPosition YPosition Z Position
	 EndSite
	 {
	 OFFSET 0 -1 0
	 }
}
ROOT v
{
	 OFFSET 0 0 0
	 CHANNELS 3 XPosition YPosition Z Position
	 EndSite
	 {
	 OFFSET 0 -1 0
	 }
}
ROOT bn
{
	 OFFSET 0 0 0
	 CHANNELS 3 XPosition YPosition Z Position
	 EndSite
	 {
	 OFFSET 0 -1 0
	 }
}
MOTION
Frames: 10
Frame Time: 0.002
0.0014212570190429688	0.0013991440534591674	0		0.45367657470703127	-2.327249755859375	0		-1.079929931640625	-0.0730555419921875	0		-0.8114814453125	-2.326710693359375	0		1.489960693359375	-0.5318367309570312	0		3.001704833984375	0.11770656585693359	0		4.38507470703125	0.12924986267089844	0		5.609091796875	0.12037746429443359	0		-0.2557881927490234	5.8423447265625	0		
-0.003751265048980713	0.02489088821411133	0		0.4136676330566406	-2.30017041015625	0		-1.0764239501953126	-0.06975814819335938	0		-0.7848067016601562	-2.3197734375	0		1.48942431640625	-0.5323521728515626	0		3.017779296875	0.09499052429199219	0		4.39650537109375	0.12867747497558593	0		5.6085244140625	0.12005738067626953	0		-0.25564320373535154	5.84073046875	0		
-0.004624434947967529	0.00433283519744873	0		0.4361020812988281	-2.309080322265625	0		-1.0810335693359374	-0.07430770874023437	0		-0.7852391967773438	-2.320373291015625	0		1.48890185546875	-0.5328377075195313	0		3.00645263671875	0.108757568359375	0		4.383951171875	0.1285318603515625	0		5.6121298828125	0.1297132568359375	0		-0.2706458129882813	5.83038427734375	0		
0.002823559045791626	0.0026758649349212646	0		0.43365716552734374	-2.311552978515625	0		-1.085612060546875	-0.077828125	0		-0.7517363891601563	-2.326489013671875	0		1.4794447021484376	-0.53014306640625	0		3.016685791015625	0.0942126693725586	0		4.3912958984375	0.12110688018798828	0		5.59675146484375	0.13972071838378905	0		-0.272471435546875	5.830857421875	0		
-0.005676994800567627	0.0033126559257507324	0		0.4063172912597656	-2.30858837890625	0		-1.161099609375	-0.07617669677734375	0		-0.7880742797851562	-2.32344482421875	0		1.4789561767578125	-0.5305538940429687	0		2.994278076171875	0.1012374267578125	0		4.38288525390625	0.12798216247558594	0		5.606904296875	0.11936063385009765	0		-0.27232296752929686	5.82933544921875	0		
0.005855978965759278	0.00466887903213501	0		0.43860919189453124	-2.330541748046875	0		-1.07850732421875	-0.07201959228515625	0		-0.7755394287109375	-2.330147216796875	0		1.487439453125	-0.5340662231445312	0		3.028722900390625	0.09739429473876954	0		4.37138232421875	0.12795093536376953	0		5.61052783203125	0.12715707397460937	0		-0.25603585815429686	5.83559619140625	0		
0.008444899559020997	0.008211647033691406	0		0.4137473754882813	-2.3005322265625	0		-1.07493017578125	-0.06955384826660156	0		-0.7697871704101562	-2.324696533203125	0		1.4900587158203125	-0.5304398193359375	0		3.012595458984375	0.11940790557861328	0		4.3818994140625	0.12761338043212891	0		5.6151728515625	0.13498399353027343	0		-0.25880740356445314	5.8372041015625	0		
1.2524999678134918E-5	0.008972724914550782	0		0.43631439208984374	-2.30823876953125	0		-1.0875321044921875	-0.07978903198242188	0		-0.787071044921875	-2.322836669921875	0		1.4835137939453125	-0.5386257934570312	0		2.997729248046875	0.09343693542480469	0		4.39344189453125	0.12730397033691407	0		5.6054638671875	0.11907920837402344	0		-0.2747261657714844	5.8280625	0		
-0.002583892107009888	-0.002318022012710571	0		0.40702362060546876	-2.308080078125	0		-1.087949951171875	-0.08017302703857422	0		-0.7785238037109375	-2.33334521484375	0		1.477232666015625	-0.5317733764648438	0		3.014299560546875	0.09301062774658203	0		4.38890234375	0.12028778839111329	0		5.60503515625	0.11906608581542968	0		-0.275471435546875	5.82772314453125	0		
-0.002978879928588867	-0.00260142707824707	0		0.43167001342773437	-2.31373486328125	0		-1.0883408203125	-0.08051443481445313	0		-0.7896668090820312	-2.325497802734375	0		1.4827550048828124	-0.5390712890625	0		3.013899658203125	0.09288845825195312	0		4.37751806640625	0.1214122314453125	0		5.5997919921875	0.12915989685058593	0		-0.2761780090332031	5.82742529296875	0		
